<svg width="22" height="22" viewBox="0 0 22 22" fill="none" xmlns="http://www.w3.org/2000/svg">
<path d="M21.5551 8.73678V9.79578C21.5551 10.1267 21.3345 10.3474 21.0256 10.3474C20.6947 10.3474 20.4961 10.1267 20.4961 9.75166C20.4961 8.73678 20.4961 7.7219 20.4961 6.68496V5.07439C20.4961 3.68445 19.6357 2.80195 18.2458 2.80195H18.0251C17.8486 2.80195 17.6942 2.80195 17.5398 2.80195C17.3633 2.80195 17.2309 2.84607 17.1206 2.93432C16.9661 3.08876 16.9661 3.28732 16.9882 3.35351C16.9882 3.55208 16.9882 3.79476 16.9661 4.03745C16.9441 4.32427 16.7234 4.52283 16.4366 4.52283C16.1498 4.52283 15.9512 4.32427 15.9071 4.03745C15.8851 3.79476 15.8851 3.55208 15.8851 3.33145C15.8851 3.26526 15.8851 3.08876 15.7527 2.93432C15.6203 2.77989 15.4217 2.77989 15.3556 2.77989C14.0318 2.77989 12.8625 2.77989 11.8035 2.77989C11.7373 2.77989 11.5387 2.77989 11.4064 2.93432C11.2519 3.11082 11.2519 3.30939 11.2519 3.37557C11.2519 3.53001 11.2519 3.68445 11.2519 3.83889V3.9492C11.2519 4.3022 11.0534 4.52283 10.7445 4.54489C10.4356 4.54489 10.215 4.3022 10.1929 3.99333C10.1929 3.79476 10.1929 3.57414 10.1929 3.35351C10.1929 3.28732 10.1929 3.11082 10.0605 2.95639C9.92816 2.80195 9.7296 2.80195 9.66341 2.80195C8.47203 2.80195 7.28065 2.80195 6.17752 2.80195C6.11134 2.80195 5.91277 2.80195 5.7804 2.95639C5.64802 3.11082 5.64802 3.28732 5.64802 3.35351C5.64802 3.5962 5.64802 3.79476 5.64802 3.99333C5.62596 4.32427 5.40533 4.56695 5.09646 4.54489C4.72139 4.54489 4.58902 4.23601 4.58902 3.9492C4.58902 3.88301 4.58902 3.81683 4.61108 3.72858C4.63314 3.48589 4.67727 3.13289 4.41252 2.91226C4.19189 2.73576 3.90508 2.75782 3.66239 2.77989C3.57414 2.77989 3.50795 2.80195 3.44176 2.77989C2.42688 2.77989 1.69882 3.17701 1.27963 3.97126C1.12519 4.25808 1.059 4.58902 1.059 4.96408V7.63365C1.059 11.1857 1.059 14.7599 1.059 18.3119C1.059 19.5695 1.94151 20.452 3.22114 20.452C5.36121 20.452 7.52334 20.452 9.66341 20.452C10.0164 20.452 10.1488 20.5844 10.215 20.7168C10.3032 20.8933 10.3253 21.0698 10.215 21.2463C10.1267 21.4228 9.95022 21.511 9.7296 21.511C9.33247 21.511 8.91328 21.511 8.53822 21.511C8.36172 21.511 8.18522 21.511 8.00872 21.511H6.53052C5.40533 21.511 4.28014 21.511 3.15495 21.511C1.65469 21.511 0.375064 20.4961 0.0661877 19.0621C0.0220626 18.8414 0 18.5767 0 18.2899C0 16.6131 0 14.9364 0 13.2596L0 9.66341C0 8.09697 0 6.50846 0 4.91995C0 3.4197 1.01488 2.14007 2.44895 1.80913C2.86814 1.72088 3.30939 1.72088 3.7727 1.74294H3.97126C4.10364 1.74294 4.28014 1.74294 4.43458 1.58851C4.58902 1.43407 4.56695 1.19138 4.56695 1.12519C4.56695 0.992816 4.56695 0.860441 4.56695 0.728065V0.59569C4.56695 0.264751 4.76552 0.0441252 5.07439 0.0220626C5.36121 0.0220626 5.62596 0.242688 5.64802 0.573627C5.67008 0.794253 5.64802 1.01488 5.64802 1.2355C5.64802 1.30169 5.64802 1.47819 5.7804 1.63263C5.91277 1.76501 6.11134 1.76501 6.15546 1.76501C7.32478 1.76501 8.49409 1.76501 9.68547 1.76501C9.75166 1.76501 9.92816 1.76501 10.0605 1.63263C10.1929 1.47819 10.1929 1.30169 10.1929 1.2355C10.1929 1.03694 10.1929 0.838378 10.1929 0.617752C10.1929 0.264751 10.4356 0.0220626 10.7445 0.0220626C11.1195 0 11.2519 0.308876 11.2519 0.59569C11.2519 0.661877 11.2519 0.728065 11.2519 0.816315C11.2299 1.059 11.1857 1.36788 11.4064 1.58851C11.649 1.80913 11.9579 1.78707 12.2006 1.74294C12.2668 1.74294 12.355 1.72088 12.3992 1.72088C12.8625 1.72088 13.3037 1.72088 13.7671 1.72088C14.2745 1.72088 14.7819 1.72088 15.3114 1.72088C15.4438 1.72088 15.6203 1.69882 15.7527 1.56644C15.9071 1.41201 15.8851 1.19138 15.8851 1.12519C15.863 0.926628 15.8851 0.706003 15.8851 0.551564C15.9071 0.220626 16.1057 0 16.4146 0C16.7234 0 16.922 0.220626 16.9441 0.573627C16.9441 0.750128 16.9661 0.948691 16.9441 1.10313C16.9441 1.16932 16.922 1.38994 17.0764 1.54438C17.2088 1.69882 17.4074 1.72088 17.5398 1.72088C17.6501 1.72088 17.7383 1.72088 17.8486 1.72088C18.2237 1.72088 18.5546 1.72088 18.9076 1.76501C20.3638 1.98563 21.5331 3.28732 21.5551 4.72139C21.5551 6.06721 21.5551 7.43509 21.5551 8.73678Z" fill="#4502C7"/>
</svg>
